<svg xmlns="http://www.w3.org/2000/svg" viewBox="0 0 300 200" fill="none">
  <rect width="300" height="200" fill="#FFF0F5"/>
  <!-- Screen/projector -->
  <rect x="75" y="30" width="150" height="80" rx="6" fill="#FF3366" opacity="0.1"/>
  <rect x="85" y="40" width="130" height="60" rx="4" fill="#FF3366" opacity="0.08"/>
  <!-- Content on screen -->
  <rect x="100" y="50" width="100" height="6" rx="2" fill="#FF3366" opacity="0.15"/>
  <rect x="100" y="62" width="80" height="6" rx="2" fill="#FF3366" opacity="0.1"/>
  <rect x="100" y="74" width="60" height="6" rx="2" fill="#FF3366" opacity="0.1"/>
  <!-- Audience -->
  <circle cx="80" cy="155" r="8" fill="#FF3366" opacity="0.15"/>
  <rect x="74" y="163" width="12" height="15" rx="4" fill="#FF3366" opacity="0.1"/>
  <circle cx="120" cy="160" r="8" fill="#FF3366" opacity="0.15"/>
  <rect x="114" y="168" width="12" height="15" rx="4" fill="#FF3366" opacity="0.1"/>
  <circle cx="160" cy="158" r="8" fill="#FF3366" opacity="0.15"/>
  <rect x="154" y="166" width="12" height="15" rx="4" fill="#FF3366" opacity="0.1"/>
  <circle cx="200" cy="162" r="8" fill="#FF3366" opacity="0.15"/>
  <rect x="194" y="170" width="12" height="15" rx="4" fill="#FF3366" opacity="0.1"/>
  <text x="150" y="190" text-anchor="middle" font-family="Poppins, sans-serif" font-size="11" fill="#FF3366" opacity="0.5" font-weight="600">ORIENTATION PROGRAM</text>
</svg>